<svg id="visual" viewBox="0 0 960 540" width="960" height="540" xmlns="http://www.w3.org/2000/svg" xmlns:xlink="http://www.w3.org/1999/xlink" version="1.1"><path d="M0 297L137 206L274 238L411 248L549 201L686 246L823 238L960 295L960 0L823 0L686 0L549 0L411 0L274 0L137 0L0 0Z" fill="#fcaf3c"></path><path d="M0 236L137 181L274 227L411 195L549 157L686 155L823 180L960 248L960 0L823 0L686 0L549 0L411 0L274 0L137 0L0 0Z" fill="#fec36f"></path><path d="M0 164L137 142L274 138L411 124L549 128L686 170L823 197L960 135L960 0L823 0L686 0L549 0L411 0L274 0L137 0L0 0Z" fill="#ffd69f"></path><path d="M0 97L137 140L274 79L411 125L549 76L686 95L823 96L960 72L960 0L823 0L686 0L549 0L411 0L274 0L137 0L0 0Z" fill="#ffeacf"></path><path d="M0 81L137 66L274 67L411 33L549 51L686 46L823 33L960 40L960 0L823 0L686 0L549 0L411 0L274 0L137 0L0 0Z" fill="#ffffff"></path></svg>