<svg id="visual" viewBox="0 0 960 540" width="960" height="540" xmlns="http://www.w3.org/2000/svg" xmlns:xlink="http://www.w3.org/1999/xlink" version="1.1"><path d="M0 241L137 332L274 300L411 290L549 337L686 292L823 300L960 243L960 541L823 541L686 541L549 541L411 541L274 541L137 541L0 541Z" fill="#fcaf3c"></path><path d="M0 302L137 357L274 311L411 343L549 381L686 383L823 358L960 290L960 541L823 541L686 541L549 541L411 541L274 541L137 541L0 541Z" fill="#fec36f"></path><path d="M0 374L137 396L274 400L411 414L549 410L686 368L823 341L960 403L960 541L823 541L686 541L549 541L411 541L274 541L137 541L0 541Z" fill="#ffd69f"></path><path d="M0 441L137 398L274 459L411 413L549 462L686 443L823 442L960 466L960 541L823 541L686 541L549 541L411 541L274 541L137 541L0 541Z" fill="#ffeacf"></path><path d="M0 457L137 472L274 471L411 505L549 487L686 492L823 505L960 498L960 541L823 541L686 541L549 541L411 541L274 541L137 541L0 541Z" fill="#ffffff"></path></svg>